<?xml version="1.0" encoding="UTF-8"?>
<svg xmlns="http://www.w3.org/2000/svg" viewBox="0 0 737.22 577.22">
  <defs>
    <style>
      .cls-1 {
        letter-spacing: 0em;
      }

      .cls-2 {
        fill: #fff;
        stroke: #000;
        stroke-miterlimit: 10;
        stroke-width: 10px;
      }

      .cls-3 {
        letter-spacing: 0em;
      }

      .cls-4 {
        letter-spacing: -.09em;
      }

      .cls-5 {
        fill: #ff3f6a;
        font-family: Brusher-Regular, Brusher;
        font-size: 241.04px;
      }
    </style>
  </defs>
  <g id="Cloud">
    <path class="cls-2" d="M76.61,188.91c-14.01-39.13-7-81.45,18.49-106.6,35.75-35.26,105.52-34.48,150.75,13.43C266.23,39.77,320.59,3.05,379.93,5.08c58.78,2.01,110.14,41.63,127.11,98.13,6.35-3.92,59.97-35.79,122.08-12.34,8.24,3.11,58.8,23.19,79.66,79.66,21.21,57.41-5.31,106.38-9.2,113.28,4.32,4.47,39.8,42.32,31.34,91.04-8.39,48.33-56.53,87.44-116.1,87.76-1.12,4.15-21.14,73.28-91.36,94.33-46.67,13.99-97.61,1.36-132.84-32.84-28.15,40.57-79.46,57.85-125.08,42.68-42.31-14.07-72.1-53.5-74.55-99.06-44.28,44.17-114.87,39.44-149.11-2.04-29.08-35.23-27.88-92.04,7.15-130.72C17.79,320.08,.21,286.04,6.14,252.23c6.06-34.51,35.23-60.8,70.47-63.32Z"/>
  </g>
  <g id="Layer_2" data-name="Layer 2">
    <text class="cls-5" transform="translate(229.91 357.02) scale(.97 1)"><tspan class="cls-1" x="0" y="0">A</tspan><tspan class="cls-4" x="106.54" y="0">r</tspan><tspan class="cls-3" x="188.73" y="0">t</tspan></text>
  </g>
</svg>